<svg id="Layer_1" data-name="Layer 1" xmlns="http://www.w3.org/2000/svg" viewBox="0 0 100 100"><defs><style>.cls-1{fill:#1d1d1b;}</style></defs><title>Imagenes</title><path class="cls-1" d="M22.44,50.23H4.33a2.51,2.51,0,1,1,0-5H22.44a2.51,2.51,0,0,1,0,5ZM4.33,45.88a1.84,1.84,0,1,0,0,3.67H22.44a1.84,1.84,0,1,0,0-3.67Z"/><path class="cls-1" d="M94.54,44H76.43a2.51,2.51,0,0,1,0-5H94.54a2.51,2.51,0,0,1,0,5ZM76.43,39.63a1.84,1.84,0,1,0,0,3.67H94.54a1.84,1.84,0,1,0,0-3.67Z"/><path class="cls-1" d="M27.79,92.72A5.22,5.22,0,1,1,33,87.5,5.22,5.22,0,0,1,27.79,92.72Zm0-9.76a4.55,4.55,0,1,0,4.54,4.54A4.55,4.55,0,0,0,27.79,83Z"/><path class="cls-1" d="M77.43,92.72a5.22,5.22,0,1,1,5.22-5.22A5.22,5.22,0,0,1,77.43,92.72Zm0-9.76A4.55,4.55,0,1,0,82,87.5,4.54,4.54,0,0,0,77.43,83Z"/><path class="cls-1" d="M53,64.57H23.63V61H53ZM24.3,63.89h28V61.71h-28Z"/><path class="cls-1" d="M85.55,37.06H63V26.24l27.7,4.51v4.41Zm-21.86-.67H85.43l4.6-1.7V31.32L63.69,27Z"/><path class="cls-1" d="M60.11,88.17H16.47V34.58H60.11Zm-43-.68H59.43V35.26H17.14Z"/><path class="cls-1" d="M63.69,88.17H59.43V40.29h4.26Zm-3.58-.68H63V41h-2.9Z"/><path class="cls-1" d="M85.82,88.17H63V36.39H85.82Zm-22.13-.68H85.15V37.06H63.69Z"/><path class="cls-1" d="M53,70.59H23.63V67.06H53ZM24.3,69.91h28V67.73h-28Z"/><path class="cls-1" d="M53,76.61H23.63V73.08H53ZM24.3,75.94h28V73.76h-28Z"/><path class="cls-1" d="M69.36,57a2.3,2.3,0,0,1-2.29-2.29V49.4a2.29,2.29,0,0,1,4.58,0v5.26A2.3,2.3,0,0,1,69.36,57Zm0-9.16a1.61,1.61,0,0,0-1.61,1.61v5.26a1.62,1.62,0,1,0,3.23,0V49.4A1.62,1.62,0,0,0,69.36,47.79Z"/><path class="cls-1" d="M42.78,20.25h0A2.47,2.47,0,0,1,41,19.5,2.5,2.5,0,0,1,41,16L53.89,3.21a2.5,2.5,0,0,1,3.55,0h0a2.52,2.52,0,0,1,0,3.55L44.55,19.52A2.51,2.51,0,0,1,42.78,20.25ZM55.66,3.16a1.81,1.81,0,0,0-1.29.53L41.49,16.44a1.83,1.83,0,0,0,0,2.59,1.78,1.78,0,0,0,1.29.54h0A1.77,1.77,0,0,0,44.07,19L57,6.3a1.84,1.84,0,0,0,0-2.6h0a1.82,1.82,0,0,0-1.3-.54Z"/><path class="cls-1" d="M60.11,35.26H16.74L1.82,29.8V24.34H60.11Zm-43.25-.68H59.43V25H2.49v4.31Z"/><path class="cls-1" d="M38.29,37.73a16.2,16.2,0,0,1-15.85-13l-.08-.41H54.21l-.08.41A16.19,16.19,0,0,1,38.29,37.73ZM23.19,25a15.49,15.49,0,0,0,30.19,0Z"/><path class="cls-1" d="M60.11,25H1.82V21.41H19.4V11.83l.12-.1a17.58,17.58,0,0,1,4.73-2.58,33.33,33.33,0,0,1,14-2.06l.32,0v8.58H60.11ZM2.49,24.34H59.43v-8H38V7.75a32.7,32.7,0,0,0-13.42,2,19.09,19.09,0,0,0-4.46,2.39v9.94H2.49Z"/><path class="cls-1" d="M29,30.89a2.3,2.3,0,1,1,2.3-2.3A2.3,2.3,0,0,1,29,30.89ZM29,27a1.62,1.62,0,1,0,1.63,1.62A1.63,1.63,0,0,0,29,27Z"/><path class="cls-1" d="M34.31,30.89a2.3,2.3,0,1,1,2.3-2.3A2.3,2.3,0,0,1,34.31,30.89Zm0-3.92a1.62,1.62,0,1,0,1.63,1.62A1.63,1.63,0,0,0,34.31,27Z"/><path class="cls-1" d="M39.62,30.89a2.3,2.3,0,1,1,2.3-2.3A2.3,2.3,0,0,1,39.62,30.89Zm0-3.92a1.62,1.62,0,1,0,1.63,1.62A1.63,1.63,0,0,0,39.62,27Z"/><path class="cls-1" d="M44.93,30.89a2.3,2.3,0,1,1,2.3-2.3A2.3,2.3,0,0,1,44.93,30.89Zm0-3.92a1.62,1.62,0,1,0,1.63,1.62A1.63,1.63,0,0,0,44.93,27Z"/></svg>