<svg id="Layer_1" data-name="Layer 1" xmlns="http://www.w3.org/2000/svg" viewBox="0 0 100 100"><defs><style>.cls-1{fill:#1d1d1b;}</style></defs><title>Imagenes</title><path class="cls-1" d="M70.32,84.08H43V56.76H70.32Zm-26.39-.93H69.39V57.69H43.93Z"/><path class="cls-1" d="M76.53,97.58H36.78v-47H76.53Zm-38.82-.93H75.6V51.47H37.71ZM70.32,84.08H43V56.76H70.32Zm-26.39-.93H69.39V57.69H43.93Z"/><path class="cls-1" d="M69.93,84.08H43.39l.16-.59c1.78-6.58,8.75-5.56,8.82-5.55l4.29.64L61,77.94c.2,0,7.06-1,8.82,5.55Zm-25.31-.93H68.69a6,6,0,0,0-4.25-4,8.81,8.81,0,0,0-3.35-.26h0l-4.43.66-4.43-.66a8.81,8.81,0,0,0-3.35.26A6.06,6.06,0,0,0,44.62,83.15Z"/><path class="cls-1" d="M56.66,80.54c-3.91,0-6.63-3.73-6.74-3.89l-.06-.09L48.07,65.14l8.59-3,8.59,3L63.46,76.56l-.07.09C63.28,76.81,60.57,80.54,56.66,80.54ZM50.74,76.2c.41.53,2.79,3.41,5.92,3.41s5.5-2.88,5.92-3.41l1.63-10.44-7.55-2.6-7.56,2.6Z"/><path class="cls-1" d="M50.44,73.93h-.5a1.58,1.58,0,0,1-1.27-.48,1.13,1.13,0,0,1-.28-.71c-1.21-1.91-1-3.16-.42-3.66.4-.35,1.14-.46,2,.28l.15.13Zm-1.13-1.25a.29.29,0,0,0,.06.17l.06.05-.21-3c-.31-.22-.54-.25-.64-.17s-.32,1.07.66,2.58l.1.14,0,.18Z"/><path class="cls-1" d="M63.38,73.93h-.5l.32-4.44.14-.13c.87-.74,1.6-.63,2-.28.56.5.78,1.75-.42,3.66a1.13,1.13,0,0,1-.28.71A1.58,1.58,0,0,1,63.38,73.93Zm.71-4-.21,3a.1.1,0,0,0,.06-.05.25.25,0,0,0,.06-.18l0-.18.1-.13c1-1.51.86-2.4.65-2.58S64.41,69.73,64.09,70Z"/><path class="cls-1" d="M56.66,78.05a2.53,2.53,0,0,1-2.27-1.3L54,76.07H59.3l-.37.68A2.53,2.53,0,0,1,56.66,78.05ZM56,77a1.87,1.87,0,0,0,1.32,0Z"/><path class="cls-1" d="M58.8,77H54.52l-.13-.25a2.16,2.16,0,0,1-.25-.74l-.07-.53h5.17l-.07.53a2.07,2.07,0,0,1-.24.74Z"/><path class="cls-1" d="M54.75,72.4h-4v-.47a2,2,0,0,1,4,0Zm-3-.93h1.93a1.07,1.07,0,0,0-1-.61A1.09,1.09,0,0,0,51.78,71.47Z"/><path class="cls-1" d="M62.57,72.4h-4v-.47a2,2,0,0,1,4,0Zm-3-.93h1.92a1.06,1.06,0,0,0-1.92,0Z"/><path class="cls-1" d="M64.3,69.69l-.33,0c-4.72-.65-6.58-2.27-7.31-3.34-.73,1.07-2.6,2.69-7.31,3.34l-.34,0-.14-.3c-.09-.18-2-4.27-.14-7.39,1.27-2.09,3.94-3.19,7.92-3.27h0c4,.08,6.64,1.18,7.92,3.27,1.9,3.12-.06,7.21-.14,7.39Zm-7.18-4.54a2.85,2.85,0,0,0,1,1.42c.82.7,2.45,1.62,5.6,2.1.39-1,1.41-4,0-6.19-1.1-1.8-3.5-2.75-7.13-2.82s-6,1-7.14,2.82c-1.36,2.24-.34,5.23,0,6.19,3.14-.48,4.78-1.4,5.6-2.1a2.85,2.85,0,0,0,1-1.43l.5-2.65.42,2.66Z"/><path class="cls-1" d="M62.05,31.38H42.82V12.15H62.05Zm-18.3-.93H61.12V13.08H43.75Z"/><path class="cls-1" d="M66.35,40.74H38.52V7.85H66.35Zm-26.91-.93h26v-31h-26Zm22.61-8.43H42.82V12.15H62.05Zm-18.3-.93H61.12V13.08H43.75Z"/><path class="cls-1" d="M48.92,19.87a2.62,2.62,0,1,1,2.61-2.61A2.61,2.61,0,0,1,48.92,19.87Zm0-4.3a1.69,1.69,0,1,0,1.69,1.69A1.69,1.69,0,0,0,48.92,15.57Z"/><path class="cls-1" d="M62.59,31.38H42.28l6.45-7.55h7.41Zm-18.3-.93H60.58l-4.87-5.7H49.16Z"/><path class="cls-1" d="M30,44.43H10.79V25.2H30Zm-18.3-.93H29.09V26.13H11.72Z"/><path class="cls-1" d="M34.33,53.79H6.49V20.9H34.33ZM7.42,52.86h26v-31h-26ZM30,44.43H10.79V25.2H30Zm-18.3-.93H29.09V26.13H11.72Z"/><path class="cls-1" d="M24.68,44.43H10.5l7.09-13.95ZM12,43.5H23.17l-5.58-11Z"/><path class="cls-1" d="M31,44.43H16.84l7.09-13.95ZM18.35,43.5H29.5l-5.57-11Z"/><path class="cls-1" d="M89.25,40.2H72V22.92H89.25Zm-16.36-.93H88.32V23.84H72.89Z"/><path class="cls-1" d="M93.1,48.57h-25V19.07h25ZM69,47.64H92.17V20H69ZM89.25,40.2H72V22.92H89.25Zm-16.36-.93H88.32V23.84H72.89Z"/><path class="cls-1" d="M80.61,38.9c-2.65,0-4.49-2.52-4.56-2.63L76,36.18l-1.2-7.68,5.83-2,5.83,2-1.21,7.68-.06.09C85.09,36.38,83.26,38.9,80.61,38.9Zm-3.74-3.08c.31.4,1.81,2.15,3.74,2.15s3.42-1.75,3.74-2.15l1.05-6.7-4.79-1.65-4.79,1.65Z"/><path class="cls-1" d="M76.69,34.55h-.5a1.18,1.18,0,0,1-1-.37.88.88,0,0,1-.22-.52c-.68-1.1-.76-2.1-.22-2.58.31-.27.88-.37,1.52.19l.15.12Zm-1.3-2.76a1.5,1.5,0,0,0,.25,1.09l-.08-1A.59.59,0,0,0,75.39,31.79Z"/><path class="cls-1" d="M85,34.55h-.5l.22-3.16.15-.12c.65-.56,1.21-.46,1.53-.19.54.48.45,1.48-.22,2.58a1,1,0,0,1-.22.52A1.21,1.21,0,0,1,85,34.55Zm.62-2.69-.07,1c.31-.61.3-1,.24-1.09A.59.59,0,0,0,85.65,31.86Z"/><path class="cls-1" d="M80.61,37.76a3.09,3.09,0,0,1-2.77-1.58l-.37-.69h6.28l-.37.69A3.11,3.11,0,0,1,80.61,37.76Zm-1.34-1.34a2.39,2.39,0,0,0,2.68,0Z"/><path class="cls-1" d="M83.25,36.42H78l-.13-.24a2.52,2.52,0,0,1-.3-.9l-.07-.53h6.28l-.08.53a2.71,2.71,0,0,1-.29.9Z"/><path class="cls-1" d="M78,33.66a1,1,0,1,1,1-.95A1,1,0,0,1,78,33.66Zm0-1s0,0,0,0,0,0,0,0A0,0,0,0,0,78,32.68Z"/><path class="cls-1" d="M83.21,33.66a1,1,0,1,1,1-.95A1,1,0,0,1,83.21,33.66Zm0-1s0,0,0,0,0,0,0,0A0,0,0,0,0,83.21,32.68Z"/><path class="cls-1" d="M87.18,31.25H74v-.47a6.58,6.58,0,0,1,13.15,0ZM75,30.32H86.24a5.65,5.65,0,0,0-11.26,0Z"/><path class="cls-1" d="M56.93,24.75h-9l4.5-5.26Zm-7-.92h5l-2.48-2.91Z"/></svg>