<svg id="Layer_1" data-name="Layer 1" xmlns="http://www.w3.org/2000/svg" viewBox="0 0 100 100"><defs><style>.cls-1{fill:#1d1d1b;}</style></defs><title>Imagenes</title><path class="cls-1" d="M96.79,73.54H62.3V39.06H96.79ZM63,72.82h33v-33H63Z"/><path class="cls-1" d="M96.79,73.54H91V39.06h5.79Zm-5.07-.72h4.34v-33H91.72Z"/><path class="cls-1" d="M97.07,39.78H62.46l-11-18.12H86.06Zm-34.2-.72H95.78L85.65,22.39H52.74Z"/><path class="cls-1" d="M86.11,36.37H68.71l-5.62-9.25h17.4Zm-17-.72h15.7l-4.74-7.8H64.38Z"/><path class="cls-1" d="M63,73.54H1.6V21.66H52.3L63,39.32ZM2.32,72.82h60V39.52L51.89,22.39H2.32Z"/><path class="cls-1" d="M36.43,73.54h-28V52h28ZM9.15,72.82H35.7V52.74H9.15Z"/><path class="cls-1" d="M36.43,52.74h-28v-13h28ZM9.15,52H35.7V40.46H9.15Z"/><path class="cls-1" d="M55.18,73.54h-15v-41h15Zm-14.32-.72h13.6V33.3H40.86Z"/><path class="cls-1" d="M28.24,49.67H16.94V43.83h11.3ZM17.67,49h9.85V44.56H17.67Z"/><path class="cls-1" d="M56.89,73.54H47.3v-41h9.59ZM48,72.82h8.14V33.3H48Z"/><path class="cls-1" d="M56.89,42.51H48.66V37.69h8.23Zm-7.5-.73h6.77V38.42H49.39Z"/><path class="cls-1" d="M56.89,73.54H51.73V65.06h5.16Zm-4.43-.72h3.7v-7h-3.7Z"/><path class="cls-1" d="M96.79,44.85H62.3V39.06H96.79ZM63,44.12h33V39.78H63Z"/><path class="cls-1" d="M68.09,73.54H62.3V39.06h5.79ZM63,72.82h4.34v-33H63Z"/></svg>