<svg id="Layer_1" data-name="Layer 1" xmlns="http://www.w3.org/2000/svg" viewBox="0 0 100 100"><defs><style>.cls-1{fill:#1d1d1b;}</style></defs><title>Imagenes</title><path class="cls-1" d="M90.75,40H10V29.86H90.75Zm-80.1-.69H90.06V30.55H10.65Z"/><path class="cls-1" d="M14.67,87.57H9V36h5.71Zm-5-.69H14V36.71H9.66Z"/><path class="cls-1" d="M17.75,91H5.88V86.88H17.75ZM6.57,90.35H17.05V87.57H6.57Z"/><path class="cls-1" d="M91.75,87.57h-5.7V36h5.7Zm-5-.69h4.32V36.71H86.74Z"/><path class="cls-1" d="M94.83,91H83V86.88H94.83Zm-11.17-.69H94.14V87.57H83.66Z"/><path class="cls-1" d="M75.36,82.56h-50V33.71h50Zm-49.31-.69H74.67V34.4H26.05ZM70.8,77.43H59.17V72.58H70.8Zm-10.94-.69H70.1V73.27H59.86Zm-3.08.69H43.93V39.28H56.78Zm-12.16-.69H56.09V40H44.62Zm-10.26.69A4.45,4.45,0,1,1,38.81,73,4.44,4.44,0,0,1,34.36,77.43Zm0-8.19A3.75,3.75,0,1,0,38.12,73,3.76,3.76,0,0,0,34.36,69.24Zm36.44-.13H59.17V64.25H70.8Zm-10.94-.7H70.1V65H59.86ZM34.36,62.8a4.45,4.45,0,1,1,4.45-4.44A4.44,4.44,0,0,1,34.36,62.8Zm0-8.19a3.75,3.75,0,1,0,3.76,3.75A3.76,3.76,0,0,0,34.36,54.61ZM70.8,60.78H59.17V55.93H70.8Zm-10.94-.69H70.1V56.62H59.86ZM70.8,52.46H59.17V47.6H70.8Zm-10.94-.69H70.1V48.3H59.86Zm-25.5-3.6a4.45,4.45,0,1,1,4.45-4.45A4.44,4.44,0,0,1,34.36,48.17Zm0-8.2a3.76,3.76,0,1,0,3.76,3.75A3.76,3.76,0,0,0,34.36,40ZM70.8,44.14H59.17V39.28H70.8Zm-10.94-.7H70.1V40H59.86Z"/><path class="cls-1" d="M95.05,42.49H85.39V37.91a3.51,3.51,0,0,0-3.51-3.51H22.62a3.51,3.51,0,0,0-3.51,3.51v4.58H5.66a4.2,4.2,0,0,1-4.19-4.2V22.11a4.2,4.2,0,0,1,4.19-4.2H95.05a4.21,4.21,0,0,1,4.2,4.2V38.29A4.2,4.2,0,0,1,95.05,42.49Zm-9-.69h9a3.51,3.51,0,0,0,3.51-3.51V22.11a3.51,3.51,0,0,0-3.51-3.5H5.66a3.5,3.5,0,0,0-3.5,3.5V38.29a3.51,3.51,0,0,0,3.5,3.51H18.42V37.91a4.2,4.2,0,0,1,4.2-4.2H81.88a4.2,4.2,0,0,1,4.2,4.2Z"/><path class="cls-1" d="M23.29,27.86H10.2a3.66,3.66,0,0,1,0-7.31H23.29a3.66,3.66,0,0,1,0,7.31ZM10.2,21.25a3,3,0,1,0,0,5.91H23.29a3,3,0,1,0,0-5.91Z"/><path class="cls-1" d="M11.36,25.61a2,2,0,1,1,2-2A2,2,0,0,1,11.36,25.61Zm0-3.28a1.3,1.3,0,1,0,1.29,1.29A1.29,1.29,0,0,0,11.36,22.33Z"/><path class="cls-1" d="M18.4,25.61a2,2,0,1,1,2-2A2,2,0,0,1,18.4,25.61Zm0-3.28a1.3,1.3,0,1,0,1.29,1.29A1.3,1.3,0,0,0,18.4,22.33Z"/></svg>