<svg id="Layer_1" data-name="Layer 1" xmlns="http://www.w3.org/2000/svg" viewBox="0 0 100 100"><title>Imagenes</title><path d="M47.65,95.45a1.6,1.6,0,0,1-.8-.18C39.28,90.93,31.6,86.5,24.17,82.21l-9.66-5.58a2.06,2.06,0,0,1-1.11-1.9c0-1.67,0-3.35,0-5,0-2.68,0-5.45,0-8.17a1.83,1.83,0,0,1,.84-1.65,1.89,1.89,0,0,1,1.9.11c3.85,2.21,7,4,9.87,5.74a1.17,1.17,0,0,0,1.42,0c2.6-1.53,5.37-3.09,8.22-4.66a1.18,1.18,0,0,0,.72-1.23c0-4.8,0-9.67,0-14.38V41.31c0-1.7,0-3.43,0-5.1,0-4.08.06-8.31-.09-12.46a14.46,14.46,0,0,1,1.33-5.83c.18-.46.36-.93.53-1.4C39,14,40,11.54,40.9,9.12c.47-1.24,1-2.52,1.43-3.78A2.09,2.09,0,0,1,43.51,4a2.13,2.13,0,0,1,1.83.34C48.89,6.36,52.51,8.44,56,10.45l4.08,2.35L77.52,22.86a1.77,1.77,0,0,1,.8,2.52L77.09,28.6c-1.42,3.78-2.9,7.68-4.33,11.52a4.76,4.76,0,0,0-.28,1.65c0,11.41,0,24.89,0,38.35A2.68,2.68,0,0,1,71,82.77C65.46,85.85,59.89,89,54.51,92.06L50,94.61a3.9,3.9,0,0,0-.36.25,2.39,2.39,0,0,1-.87.44A5.66,5.66,0,0,1,47.65,95.45ZM15.05,60.21a1,1,0,0,0-.54.14A1.29,1.29,0,0,0,14,61.53c0,2.73,0,5.5,0,8.17v5a1.48,1.48,0,0,0,.84,1.43l9.66,5.58C31.87,86,39.55,90.47,47.11,94.81a2.81,2.81,0,0,0,1.57,0,2,2,0,0,0,.66-.36,4.15,4.15,0,0,1,.41-.27l4.49-2.55c5.39-3.06,10.95-6.22,16.45-9.3A2.14,2.14,0,0,0,72,80.12c0-13.46,0-26.94,0-38.36a5.3,5.3,0,0,1,.3-1.82c1.44-3.85,2.91-7.75,4.34-11.53l1.22-3.22c.36-1,.22-1.42-.55-1.87l-17.45-10q-2-1.18-4.07-2.35c-3.5-2-7.12-4.1-10.67-6.16a1.69,1.69,0,0,0-1.38-.31,1.63,1.63,0,0,0-.86,1.07c-.47,1.27-1,2.55-1.43,3.79-.91,2.42-1.86,4.91-2.74,7.39-.16.47-.35.95-.53,1.41a14,14,0,0,0-1.3,5.62c.16,4.16.12,8.39.1,12.49,0,1.67,0,3.39,0,5.09v4.18c0,4.71,0,9.58,0,14.37a1.7,1.7,0,0,1-1,1.71c-2.85,1.56-5.61,3.13-8.21,4.66a1.7,1.7,0,0,1-2,0c-2.88-1.7-6-3.53-9.86-5.73A1.68,1.68,0,0,0,15.05,60.21ZM46.64,91.84l-1.78-1-2.75-1.58-2.6-1.5c-7.37-4.25-15-8.64-22.47-13-.29-.17-.74-.58-.74-1,0-2.57,0-5.12,0-7.82V63.4l1.67,1,2.54,1.45,5.76,3.33c6.38,3.68,13,7.49,19.49,11.22a1.74,1.74,0,0,1,1,1.7c0,1.94,0,3.9,0,5.8v2.5c0,.17,0,.35,0,.58s0,.28,0,.46ZM16.8,64.32V66c0,2.7,0,5.24,0,7.81,0,.1.22.37.48.52,7.48,4.34,15.1,8.74,22.47,13l2.6,1.5,2.74,1.58,1,.59v0c0-.23,0-.39,0-.55,0-.83,0-1.67,0-2.5,0-1.9,0-3.87,0-5.8a1.2,1.2,0,0,0-.73-1.23C39,77.1,32.35,73.28,26,69.6l-5.75-3.32-2.54-1.46Zm32.33,27.5-.05-.4c0-.12,0-.23,0-.33a3.81,3.81,0,0,1-.06-.57c0-2.58,0-5.17.07-7.75l0-2.31a1.5,1.5,0,0,0-.91-1.39c-5.1-2.92-10.29-5.91-15.3-8.79l-3-1.73a.94.94,0,0,1-.2-.16l-.16-.13L29.22,68l.33-.19,1.69-1c2.16-1.22,4.21-2.38,6.31-3.52a1.39,1.39,0,0,1,1.21.15l14.1,8.12,4.27,2.46,5,2.86,5.29,3,.53.34.33.22.37.24Zm-19-23.72,3,1.71c5,2.89,10.19,5.88,15.3,8.8a2,2,0,0,1,1.17,1.85l0,2.31-.06,7.76a2.37,2.37,0,0,0,0,.43l18-10.22-.48-.3-5.28-3-5-2.87-4.27-2.46C48,69.41,43.2,66.65,38.49,64a1,1,0,0,0-.69-.15c-2.09,1.14-4.13,2.3-6.29,3.52ZM69.51,78.52l-2-1.13-3.16-1.82-5.44-3.14L40.14,61.61a1.76,1.76,0,0,1-1-1.71c0-8.74,0-17.64,0-26.24V25.21c0-.2,0-.39,0-.63s0-.25,0-.41l0-.43.38.21,1.47.84L44,26.46l16.83,9.72,1.54.89,2,1.18c1.43.83,2.9,1.69,4.36,2.51a1.39,1.39,0,0,1,.81,1.35c0,8.9,0,18,0,26.7v8.53c0,.14,0,.28,0,.45s0,.19,0,.31ZM39.73,24.63c0,.22,0,.4,0,.58v8.45c0,8.6,0,17.5,0,26.24a1.22,1.22,0,0,0,.71,1.25c6.28,3.6,12.65,7.27,18.8,10.82l5.45,3.14,3.16,1.82,1.24.71a1.67,1.67,0,0,0,0-.3V68.81c0-8.75,0-17.8,0-26.7a.86.86,0,0,0-.54-.88c-1.46-.83-2.94-1.69-4.36-2.51l-2-1.19-1.54-.89L43.78,26.93l-3-1.68ZM70.15,38.85l-.27-.16L67.64,37.4c-1.59-.9-3.14-1.79-4.68-2.68Q60,33,57,31.26c-5.4-3.11-11-6.34-16.48-9.48a1.22,1.22,0,0,1-.62-1.8c1.08-2.79,2.16-5.64,3.2-8.4.38-1,.77-2.06,1.16-3.08.07-.19.14-.37.23-.59l.26-.66L75.4,25ZM45,8l0,.08-.23.58c-.39,1-.77,2.05-1.16,3.08-1,2.76-2.12,5.61-3.2,8.41-.23.58-.21.79.39,1.13,5.5,3.15,11.08,6.37,16.48,9.49l6,3.46,4.67,2.68,2,1.13,4.87-12.89Z"/></svg>