<svg id="Layer_1" data-name="Layer 1" xmlns="http://www.w3.org/2000/svg" viewBox="0 0 100 100"><defs><style>.cls-1{fill:none;stroke:#000;stroke-miterlimit:10;}</style></defs><title>Imagenes</title><g id="aMcRL9"><path class="cls-1" d="M14.77,29.36H32.94c.48,0,1,0,1.43,0s.55-.13.53-.54c0-.9,0-1.8,0-2.7.18-7.3,3.38-12.86,9.78-16.4a17.45,17.45,0,0,1,15.56-.89A17.8,17.8,0,0,1,71.51,22.49a36.54,36.54,0,0,1,.37,5c0,.59,0,1.17,0,1.82H92V48.83q0,17.88,0,35.75a10.5,10.5,0,0,1-1.45,5.63,10.32,10.32,0,0,1-9.3,5.29c-8.24,0-16.49,0-24.73,0q-15.48,0-31,0a10.1,10.1,0,0,1-4.69-1,10.47,10.47,0,0,1-6.06-8.76c-.05-.51,0-1,0-1.54q0-14.72,0-29.43V29.36Zm4.46,3.83V59q0,11.63,0,23.25a9,9,0,0,0,1.6,5.23A9.36,9.36,0,0,0,29,91.68c8.68,0,17.37,0,26.05,0H76.4c.83,0,1.66,0,2.48,0a8.72,8.72,0,0,0,4.78-1.77A9.28,9.28,0,0,0,87.53,82q0-12.45,0-24.9V33.2H71.89c0,1.95,0,3.84,0,5.73a1,1,0,0,0,.42.87,3.66,3.66,0,0,1-1.41,6.43,3.63,3.63,0,0,1-4.11-1.91,3.55,3.55,0,0,1,.86-4.39,1.44,1.44,0,0,0,.58-1.3c0-1.6,0-3.2,0-4.8,0-.19,0-.39,0-.61H38.55v.62c0,1.65,0,3.3,0,4.95a1.19,1.19,0,0,0,.5,1.06,3.55,3.55,0,0,1,1.14,4,3.66,3.66,0,0,1-6.88.1,3.6,3.6,0,0,1,1.21-4.19.83.83,0,0,0,.37-.78c0-1.73,0-3.45,0-5.18v-.62Zm49.05-3.85c-.08-1.82,0-3.59-.26-5.33a13.92,13.92,0,0,0-6.34-10.24A14.23,14.23,0,0,0,47,12.66,14.35,14.35,0,0,0,39.11,22a22.48,22.48,0,0,0-.58,6.49,7.84,7.84,0,0,0,.08.82Z"/></g><line class="cls-1" x1="38.61" y1="29.34" x2="38.55" y2="33.84"/><line class="cls-1" x1="34.67" y1="29.34" x2="34.87" y2="34.73"/><line class="cls-1" x1="68.28" y1="29.34" x2="68.21" y2="35.06"/><line class="cls-1" x1="71.89" y1="28.97" x2="71.89" y2="34.98"/></svg>