<svg xmlns="http://www.w3.org/2000/svg" viewBox="0 0 100 100"><title>Imagenes</title><g id="Layer_2" data-name="Layer 2"><path d="M49.21,90.56l-.13-.08L1.64,63.13V34.51L49,7.07l.14.08c7.53,4.32,15.66,8.53,23.51,12.61C80.69,24,89.05,28.28,97,32.86l.13.08v.16c0,4.86.16,9.64.32,14.27s.32,9.64.32,14.74v.16l-.14.08c-7.65,4.41-16,9.29-24.06,14S57.09,86,49.35,90.48Zm-47-27.74,47,27.11c7.71-4.44,16.05-9.32,24.11-14S89.64,66.35,97.25,62c0-5.05-.16-9.89-.32-14.57s-.31-9.31-.31-14.13c-7.93-4.55-16.24-8.85-24.27-13C64.54,16.19,56.46,12,49,7.7L2.19,34.83ZM49.62,86.34V86C42,82.4,34,77.65,26.23,73.05c-6.89-4.08-14-8.3-20.57-11.56l-.15-.07V40.13L5.23,40l.28-.16V39.5l.27.15c6.44-3.72,12.75-7.51,19.43-11.51S39,19.87,46.28,15.67v-.2l.18.09.37-.21v.42c17.78,9.91,30.9,16.67,45.22,23.28l.29-.17v.3l.32.15-.32.18V61.3l-.14.08C85.74,65.11,79,69.07,71.93,73.26S57.38,81.85,50.16,86v.28l-.26-.13ZM6.05,61.08c6.54,3.26,13.61,7.45,20.46,11.5,7.67,4.54,15.6,9.24,23.11,12.85V63.77c-11.34-5.25-20.85-10.59-34-18L6.05,40.43Zm44.11,2.67V85.39C57.3,81.27,64.59,77,71.65,72.79S85.37,64.7,91.79,61V39.83L71.17,51.74l-.06,0-.84.49C63.25,56.22,56.61,60,50.16,63.75ZM25,50.4c8.83,4.91,16.35,8.93,24.92,12.88C56.33,59.56,63,55.75,70,51.72l.56-.32L46.68,37.85ZM46.83,37.3,71.11,51.08c6.69-3.83,13.57-7.77,20.36-11.7-14.12-6.53-27.13-13.23-44.64-23ZM15.44,45l9,5L46.28,37.45V16.29c-7.17,4.15-14.09,8.3-20.79,12.32S12.68,36.29,6.33,40l8.88,4.95.09.05Z"/></g></svg>